<?xml version="1.0" encoding="UTF-8"?>
<svg width="223" height="63" xmlns="http://www.w3.org/2000/svg">
	<metadata id="metadata8">image/svg+xml</metadata>
	<g>
		<title>Avalith</title>
		<g id="svg_1" fill="#FFF">
			<path id="logo"	d="m34.740936,0.27124l-34.739494,60.169983l39.696999,0l-4.955002,-11.893738l-14.346252,0l14.34375,-26.471252l21.383759,38.210022l13.292496,0l-34.676254,-60.015015"/>
			<g text="avlith">
				<path letter="a" d="m94.440933,23.71875l-3.919998,0c-7.684998,0 -10.279999,1.476257 -10.279999,5.80127l0,0.662476c0,4.121277 1.375,6.20874 7.98999,6.20874c2.545013,0 5.191254,-0.407471 6.210007,-0.609985l0,-12.0625zm1.475006,13.588745c-2.442505,0.661255 -5.139999,1.068726 -7.685013,1.068726c-7.737488,0 -10.28125,-2.64624 -10.28125,-8.193726l0,-0.662476c0,-5.34375 3.306259,-7.837524 12.571259,-7.837524l3.919998,0l0,-1.83252c0,-5.29248 -1.476242,-7.378723 -6.414993,-7.378723c-3.357513,0 -4.833755,0.201233 -7.226257,0.45752c-0.610001,0.051208 -1.171249,-0.153748 -1.171249,-0.765015l0,-0.306274c0,-0.558716 0.407501,-0.813721 1.171249,-0.914978c2.138748,-0.256226 3.868744,-0.45874 7.226257,-0.45874c6.872498,0 8.654999,3.868713 8.654999,9.366211l0,16.387512c0,0.611267 -0.15126,0.91626 -0.764999,1.070007"/>
				<path letter="v" d="m117.753433,35.169983c-0.764999,2.696228 -1.983749,3.206238 -3.461243,3.206238c-1.426254,0 -2.797501,-0.51001 -3.5625,-3.206238l-6.668762,-23.159973c-0.203751,-0.711304 0.102509,-1.271301 0.764999,-1.271301l0.508759,0c0.356247,0 0.712494,0.203796 0.916245,0.91626l6.514999,22.955017c0.456253,1.527527 0.966248,1.831238 1.52626,1.831238c0.558746,0 0.966248,-0.303711 1.423737,-1.831238l6.516251,-22.955017c0.203751,-0.712463 0.560013,-0.91626 0.91626,-0.91626l0.611252,0c0.66124,0 0.86499,0.559998 0.66124,1.271301l-6.667496,23.159973"/>
				<path letter="a" d="m147.022186,23.71875l-3.918762,0c-7.686234,0 -10.281235,1.476257 -10.281235,5.80127l0,0.662476c0,4.121277 1.375,6.20874 7.991257,6.20874c2.543732,0 5.190002,-0.407471 6.20874,-0.609985l0,-12.0625zm1.475006,13.588745c-2.441254,0.661255 -5.140015,1.068726 -7.683746,1.068726c-7.738754,0 -10.282516,-2.64624 -10.282516,-8.193726l0,-0.662476c0,-5.34375 3.30751,-7.837524 12.572495,-7.837524l3.918762,0l0,-1.83252c0,-5.29248 -1.475006,-7.378723 -6.413757,-7.378723c-3.358734,0 -4.83374,0.201233 -7.226242,0.45752c-0.612503,0.051208 -1.172501,-0.153748 -1.172501,-0.765015l0,-0.306274c0,-0.558716 0.408752,-0.813721 1.172501,-0.914978c2.137497,-0.256226 3.867508,-0.45874 7.226242,-0.45874c6.872498,0 8.653748,3.868713 8.653748,9.366211l0,16.387512c0,0.611267 -0.152496,0.91626 -0.764984,1.070007"/>
				<path letter="l" d="m160.818451,38.376221l-0.51001,0c-0.509979,0 -0.866241,-0.45874 -0.866241,-0.966248l0,-36.190002c0,-0.507507 0.356262,-0.966248 0.866241,-0.966248l0.51001,0c0.507507,0 0.863739,0.45874 0.863739,0.966248l0,36.190002c0,0.507507 -0.356232,0.966248 -0.863739,0.966248"/>
				<path letter="i" d="m173.644684,38.376221l-0.307495,0c-0.51001,0 -0.966248,-0.45874 -0.966248,-0.966248l0,-25.702515c0,-0.51123 0.456238,-0.96875 0.966248,-0.96875l0.307495,0c0.508759,0 0.967499,0.45752 0.967499,0.96875l0,25.702515c0,0.507507 -0.45874,0.966248 -0.967499,0.966248m0,-32.674988l-0.307495,0c-0.51001,0 -0.966248,-0.408752 -0.966248,-0.96875l0,-3.766235c0,-0.51001 0.456238,-0.966248 0.966248,-0.966248l0.307495,0c0.508759,0 0.967499,0.456238 0.967499,0.966248l0,3.766235c0,0.559998 -0.45874,0.96875 -0.967499,0.96875"/>
				<path letter="t" d="m195.632202,38.224976c-0.662506,0.099976 -2.342499,0.151245 -3.866241,0.151245c-4.481262,0 -6.973755,-1.476257 -6.973755,-6.515015l0,-26.82251c0,-0.509949 0.40625,-0.966248 0.966248,-0.966248l0.407501,0c0.508759,0 0.91626,0.456299 0.91626,0.966248l0,5.700012l8.549988,0c0.561249,0 0.967499,0.304993 0.967499,0.815002l0,0.45752c0,0.51001 -0.40625,0.815002 -0.967499,0.815002l-8.549988,0l0,19.034973c0,3.921265 1.27124,4.530029 4.683746,4.530029l3.866241,0c0.765015,0 1.068756,0.203735 1.068756,0.661255l0,0.357483c0,0.40625 -0.153748,0.712524 -1.068756,0.815002"/>
				<path letter="h" d="m222.303436,38.376221l-0.507507,0c-0.508728,0 -0.815002,-0.45874 -0.815002,-0.966248l0,-17.152527c0,-4.988708 -2.086243,-7.787476 -7.535004,-7.787476c-2.186249,0 -4.934998,0.35498 -6.867493,0.91626l0,24.023743c0,0.507507 -0.358734,0.966248 -0.866241,0.966248l-0.507507,0c-0.51123,0 -0.867493,-0.45874 -0.867493,-0.966248l0,-36.190002c0,-0.507507 0.356262,-0.966248 0.867493,-0.966248l0.507507,0c0.507507,0 0.866241,0.45874 0.866241,0.966248l0,10.181274c1.982513,-0.51001 4.630005,-0.917542 6.867493,-0.917542c7.076263,0 9.725006,4.073792 9.725006,9.773743l0,17.152527c0,0.507507 -0.306244,0.966248 -0.867493,0.966248"/>
			</g>
			<g text="software and development">
				<path letter="s" d="m80.40094,60.28125c-0.660004,0 -1.598755,-0.102478 -2.127502,-0.206238c-0.206253,-0.043762 -0.321243,-0.073792 -0.321243,-0.234985l0,-0.163757c0,-0.172546 0.143753,-0.233765 0.321243,-0.203796c0.703751,0.117554 1.555008,0.235046 2.160004,0.235046c1.057495,0 1.861252,-0.278748 1.861252,-1.46875c0,-0.60376 -0.320007,-0.925049 -1.556259,-1.601257l-0.938751,-0.512512c-1.101242,-0.602478 -1.778748,-1.088745 -1.778748,-2.086243c0,-1.36499 1.090012,-1.804993 2.248749,-1.804993c1.05751,0 1.600006,0.071228 2.100006,0.128723c0.206253,0.030029 0.308746,0.059998 0.308746,0.251282l0,0.116211c0,0.236267 -0.086243,0.266296 -0.308746,0.236267c-0.380005,-0.044983 -1.232498,-0.159973 -2.039993,-0.159973c-0.940002,0 -1.660004,0.190002 -1.660004,1.232483c0,0.64624 0.526245,1.027466 1.426254,1.527466l0.982498,0.542542c1.216248,0.676208 1.86499,1.161255 1.86499,2.130005c0,1.571228 -1.178741,2.04248 -2.542496,2.04248"/>
				<path letter="o" d="m89.885941,55.741211c0,-1.806274 -0.660004,-2.936279 -2.378754,-2.936279c-1.716248,0 -2.37999,1.130005 -2.37999,2.936279l0,1.028748c0,1.807495 0.663742,2.9375 2.37999,2.9375c1.71875,0 2.378754,-1.130005 2.378754,-2.9375l0,-1.028748zm-2.378754,4.54126c-2.012497,0 -3.024994,-1.294983 -3.024994,-3.512512l0,-1.028748c0,-2.216248 1.012497,-3.508728 3.024994,-3.508728c2.012497,0 3.025009,1.29248 3.025009,3.508728l0,1.028748c0,2.217529 -1.012512,3.512512 -3.025009,3.512512"/>
				<path letter="f" d="m95.492188,49.778748l-1.116257,0c-0.983749,0 -1.36499,0.17749 -1.36499,1.307495l0,1.21875l2.481247,0c0.160004,0 0.279999,0.088745 0.279999,0.236267l0,0.132507c0,0.144958 -0.119995,0.234985 -0.279999,0.234985l-2.481247,0l0,7.092468c0,0.147522 -0.118759,0.280029 -0.262497,0.280029l-0.107513,0c-0.16124,0 -0.274994,-0.132507 -0.274994,-0.280029l0,-8.914978c0,-1.452515 0.713745,-1.878723 2.009995,-1.878723c0.440002,0 0.923752,0.01123 1.116257,0.043701c0.262497,0.028748 0.308746,0.116272 0.308746,0.235046l0,0.102478c0,0.132507 -0.089996,0.190002 -0.308746,0.190002"/>
				<path letter="t" d="m100.087189,60.236206c-0.192505,0.030029 -0.675003,0.044983 -1.116257,0.044983c-1.294998,0 -2.012497,-0.426208 -2.012497,-1.878723l0,-7.743774c0,-0.144958 0.116257,-0.278748 0.277496,-0.278748l0.118759,0c0.147491,0 0.266251,0.133789 0.266251,0.278748l0,1.64624l2.466248,0c0.162506,0 0.278748,0.087524 0.278748,0.236267l0,0.132507c0,0.143738 -0.116241,0.234985 -0.278748,0.234985l-2.466248,0l0,5.493774c0,1.130005 0.36499,1.304993 1.349991,1.304993l1.116257,0c0.221252,0 0.306244,0.059998 0.306244,0.191223l0,0.10376c0,0.116272 -0.042496,0.205017 -0.306244,0.233765"/>
				<path letter="w" d="m108.148438,60.267456l-0.03125,0c-0.6875,0 -1.191254,-0.164978 -1.792496,-0.311279c-0.600006,0.146301 -1.128754,0.311279 -1.82251,0.311279l-0.026245,0c-1.25,0 -2.615005,-0.487488 -2.615005,-2.688721l0,-4.97876c0,-0.147522 0.105011,-0.295044 0.25,-0.295044l0.147507,0c0.146255,0 0.251251,0.147522 0.251251,0.295044l0,4.97876c0,1.966248 1.084991,2.084961 2.083755,2.084961c0.469986,0 1.101242,-0.118713 1.393738,-0.191223l0,-6.888794c0,-0.144958 0.102509,-0.278748 0.252502,-0.278748l0.146255,0c0.14624,0 0.25,0.133789 0.25,0.278748l0,6.888794c0.289993,0.07251 0.922501,0.191223 1.392502,0.191223c1.001251,0 2.088745,-0.118713 2.088745,-2.084961l0,-4.97876c0,-0.147522 0.100006,-0.295044 0.246246,-0.295044l0.148758,0c0.147491,0 0.248749,0.147522 0.248749,0.295044l0,4.97876c0,2.201233 -1.362503,2.688721 -2.612503,2.688721"/>
				<path letter="a" d="m117.304688,56.049988l-1.130005,0c-2.21875,0 -2.966248,0.42627 -2.966248,1.674988l0,0.190002c0,1.190002 0.395004,1.79248 2.307495,1.79248c0.732513,0 1.498764,-0.117493 1.788757,-0.174988l0,-3.482483zm0.426254,3.922485c-0.702499,0.191284 -1.482498,0.308777 -2.215012,0.308777c-2.234985,0 -2.966248,-0.763733 -2.966248,-2.366272l0,-0.190002c0,-1.54248 0.956253,-2.26123 3.625,-2.26123l1.130005,0l0,-0.528748c0,-1.527527 -0.428757,-2.128784 -1.845001,-2.128784c-0.975006,0 -1.399994,0.056274 -2.091248,0.131287c-0.175003,0.015015 -0.337494,-0.043762 -0.337494,-0.220032l0,-0.089966c0,-0.161255 0.119995,-0.234985 0.337494,-0.265015c0.616241,-0.071228 1.116241,-0.128723 2.091248,-0.128723c1.979996,0 2.491257,1.116211 2.491257,2.701233l0,4.72876c0,0.176208 -0.04126,0.264954 -0.220001,0.308716"/>
				<path letter="r" d="m122.694687,52.806213l-0.456253,0c-0.75,0 -1.144989,0.086243 -1.602493,0.349976l0,6.846252c0,0.146301 -0.10376,0.278748 -0.247498,0.278748l-0.146255,0c-0.151245,0 -0.236252,-0.132446 -0.236252,-0.278748l0,-6.962463c0,-0.117493 0.073746,-0.205017 0.133759,-0.233765c0.717499,-0.443726 1.332489,-0.57373 2.113739,-0.57373c0.660004,0 0.75,0.07251 0.75,0.263733l0,0.075012c0,0.174988 -0.104996,0.234985 -0.308746,0.234985"/>
				<path letter="e" d="m129.050934,55.727478c0,-1.849976 -0.616257,-2.922485 -2.277496,-2.922485c-1.628754,0 -2.32251,1.190002 -2.32251,2.936218l0,0.075012l4.600006,0l0,-0.088745zm0.365005,0.674988l-4.965012,0l0,0.308777c0,2.467468 1.192505,2.996216 2.658752,2.996216c0.648758,0 1.456253,-0.102478 2.178757,-0.248718c0.142502,-0.030029 0.304993,0 0.304993,0.190002l0,0.102478c0,0.161255 -0.059998,0.233765 -0.279999,0.280029c-0.705002,0.14624 -1.539993,0.25 -2.203751,0.25c-1.818741,0 -3.306244,-0.792542 -3.306244,-3.570007l0,-0.970032c0,-2.024963 1.029999,-3.507507 2.970001,-3.507507c2.026245,0 2.919998,1.410034 2.919998,3.493774l0,0.397522c0,0.159973 -0.128754,0.277466 -0.277496,0.277466"/>
				<path letter="amp" d="m140.117188,54.934998l-4.318756,0c-0.488739,0.557495 -0.735001,1.190002 -0.735001,1.892517c0,2.058716 1.075012,2.777466 3.203751,2.777466l1.850006,0l0,-4.669983zm2.217499,0l-1.573761,0l0,4.977478c0,0.147522 -0.101227,0.280029 -0.246246,0.280029l-2.247498,0c-2.483749,0 -3.84874,-0.970032 -3.84874,-3.36499c0,-0.747498 0.378738,-1.717529 0.849991,-2.215027c-0.426239,-0.5 -0.849991,-1.221252 -0.849991,-2.086243c0,-2.392517 1.36499,-3.244995 3.84874,-3.244995l2.154999,0c0.147522,0 0.28125,0.101257 0.28125,0.248718l0,0.087524c0,0.147522 -0.133728,0.251282 -0.28125,0.251282l-2.154999,0c-2.128738,0 -3.203751,0.599976 -3.203751,2.657471c0,0.705017 0.266251,1.233765 0.735001,1.776245l6.536255,0c0.143738,0 0.277496,0.087524 0.277496,0.25l0,0.132507c0,0.161255 -0.133759,0.25 -0.277496,0.25"/>
				<path letter="d" d="m151.639679,52.996216c-0.557495,-0.118774 -1.467499,-0.190002 -2.04126,-0.190002c-1.61499,0 -2.22998,0.997498 -2.22998,2.934998l0,0.970032c0,1.89624 0.586243,2.996216 2.22998,2.996216c0.705017,0 1.512512,-0.102478 2.04126,-0.190002l0,-6.52124zm0.428741,7.006226c-0.649994,0.131287 -1.633728,0.278748 -2.470001,0.278748c-2.029999,0 -2.881226,-1.454956 -2.881226,-3.569946l0,-0.970032c0,-2.318726 0.971222,-3.508728 2.881226,-3.508728c0.573761,0 1.452515,0.087463 2.04126,0.219971l0,-2.894958c0,-0.14502 0.10376,-0.277527 0.251251,-0.277527l0.144989,0c0.147522,0 0.25,0.132507 0.25,0.277527l0,10.163696c0,0.177551 -0.044983,0.235046 -0.217499,0.28125"/>
				<path letter="e" d="m159.362183,55.727478c0,-1.849976 -0.616241,-2.922485 -2.278748,-2.922485c-1.630005,0 -2.32251,1.190002 -2.32251,2.936218l0,0.075012l4.601257,0l0,-0.088745zm0.366241,0.674988l-4.967499,0l0,0.308777c0,2.467468 1.192505,2.996216 2.660004,2.996216c0.647491,0 1.456268,-0.102478 2.175018,-0.248718c0.14624,-0.030029 0.307495,0 0.307495,0.190002l0,0.102478c0,0.161255 -0.061249,0.233765 -0.277496,0.280029c-0.70752,0.14624 -1.542511,0.25 -2.205017,0.25c-1.820007,0 -3.306244,-0.792542 -3.306244,-3.570007l0,-0.970032c0,-2.024963 1.029999,-3.507507 2.96875,-3.507507c2.028748,0 2.922485,1.410034 2.922485,3.493774l0,0.397522c0,0.159973 -0.132477,0.277466 -0.277496,0.277466"/>
				<path letter="v" d="m164.938446,59.35498c-0.21875,0.778748 -0.575012,0.92749 -1.002502,0.92749c-0.40625,0 -0.804993,-0.148743 -1.024994,-0.92749l-1.923767,-6.681274c-0.059998,-0.207458 0.027527,-0.368713 0.21875,-0.368713l0.146271,0c0.103729,0 0.207489,0.058716 0.264984,0.265015l1.880005,6.623718c0.133759,0.441284 0.282501,0.527527 0.438751,0.527527c0.163757,0 0.279999,-0.086243 0.412506,-0.527527l1.881256,-6.623718c0.059998,-0.206299 0.157501,-0.265015 0.263733,-0.265015l0.173767,0c0.197479,0 0.251251,0.161255 0.197479,0.368713l-1.926239,6.681274"/>
				<path letter="e" d="m173.204681,55.727478c0,-1.849976 -0.616241,-2.922485 -2.274994,-2.922485c-1.631256,0 -2.325012,1.190002 -2.325012,2.936218l0,0.075012l4.600006,0l0,-0.088745zm0.367493,0.674988l-4.967499,0l0,0.308777c0,2.467468 1.190002,2.996216 2.658752,2.996216c0.648743,0 1.455017,-0.102478 2.175018,-0.248718c0.147491,-0.030029 0.306244,0 0.306244,0.190002l0,0.102478c0,0.161255 -0.056244,0.233765 -0.278748,0.280029c-0.703766,0.14624 -1.54126,0.25 -2.202515,0.25c-1.820007,0 -3.303741,-0.792542 -3.303741,-3.570007l0,-0.970032c0,-2.024963 1.028748,-3.507507 2.970001,-3.507507c2.023743,0 2.919983,1.410034 2.919983,3.493774l0,0.397522c0,0.159973 -0.131226,0.277466 -0.277496,0.277466"/>
				<path letter="l" d="m176.225952,60.28125l-0.148743,0c-0.147522,0 -0.248749,-0.132507 -0.248749,-0.280029l0,-10.443726c0,-0.14502 0.101227,-0.276245 0.248749,-0.276245l0.148743,0c0.144989,0 0.244995,0.131226 0.244995,0.276245l0,10.443726c0,0.147522 -0.100006,0.280029 -0.244995,0.280029"/>
				<path letter="o" d="m183.862183,55.741211c0,-1.806274 -0.662506,-2.936279 -2.380005,-2.936279c-1.717499,0 -2.378754,1.130005 -2.378754,2.936279l0,1.028748c0,1.807495 0.661255,2.9375 2.378754,2.9375c1.717499,0 2.380005,-1.130005 2.380005,-2.9375l0,-1.028748zm-2.380005,4.54126c-2.012482,0 -3.028748,-1.294983 -3.028748,-3.512512l0,-1.028748c0,-2.216248 1.016266,-3.508728 3.028748,-3.508728c2.008759,0 3.022491,1.29248 3.022491,3.508728l0,1.028748c0,2.217529 -1.013733,3.512512 -3.022491,3.512512"/>
				<path letter="p" d="m191.258423,55.80249c0,-1.89624 -0.587494,-2.996277 -2.233765,-2.996277c-0.706238,0 -1.514984,0.102539 -2.039978,0.190002l0,6.52002c0.558746,0.118774 1.467499,0.191284 2.039978,0.191284c1.61377,0 2.233765,-1 2.233765,-2.938782l0,-0.966248zm-2.233765,4.47876c-0.572479,0 -1.454987,-0.088745 -2.039978,-0.220032l0,2.717529c0,0.14624 -0.106262,0.278748 -0.251251,0.278748l-0.143768,0c-0.151245,0 -0.252502,-0.132507 -0.252502,-0.278748l0,-9.98877c0,-0.176208 0.045013,-0.234985 0.221252,-0.278748c0.643768,-0.131226 1.628754,-0.277466 2.466248,-0.277466c2.025024,0 2.876251,1.452454 2.876251,3.568726l0,0.966248c0,2.320007 -0.967499,3.512512 -2.876251,3.512512"/>
				<path letter="m" d="m202.40094,60.28125l-0.144989,0c-0.147522,0 -0.248749,-0.147522 -0.248749,-0.294983l0,-5.066284c0,-1.967468 -1.088776,-2.102478 -2.086273,-2.102478c-0.472504,0 -1.10498,0.13501 -1.39624,0.20752l0,6.976196c0,0.147522 -0.10376,0.280029 -0.252502,0.280029l-0.14624,0c-0.143768,0 -0.248749,-0.132507 -0.248749,-0.280029l0,-6.976196c-0.29126,-0.07251 -0.923767,-0.20752 -1.396271,-0.20752c-0.998749,0 -2.08374,0.13501 -2.08374,2.102478l0,5.066284c0,0.147461 -0.102509,0.294983 -0.248749,0.294983l-0.149994,0c-0.14624,0 -0.247498,-0.147522 -0.247498,-0.294983l0,-5.066284c0,-2.202454 1.36499,-2.686218 2.613739,-2.686218l0.03125,0c0.684998,0 1.190002,0.158752 1.788757,0.307495c0.605011,-0.148743 1.131256,-0.307495 1.820007,-0.307495c1.251251,0 2.643738,0.469971 2.643738,2.686218l0,5.066284c0,0.147461 -0.102509,0.294983 -0.247498,0.294983"/>
				<path letter="e" d="m209.753448,55.727478c0,-1.849976 -0.616241,-2.922485 -2.277496,-2.922485c-1.628754,0 -2.318756,1.190002 -2.318756,2.936218l0,0.075012l4.596252,0l0,-0.088745zm0.367493,0.674988l-4.963745,0l0,0.308777c0,2.467468 1.190002,2.996216 2.657501,2.996216c0.648743,0 1.453766,-0.102478 2.174988,-0.248718c0.14502,-0.030029 0.308777,0 0.308777,0.190002l0,0.102478c0,0.161255 -0.061249,0.233765 -0.278778,0.280029c-0.704987,0.14624 -1.54248,0.25 -2.204987,0.25c-1.820007,0 -3.303741,-0.792542 -3.303741,-3.570007l0,-0.970032c0,-2.024963 1.024994,-3.507507 2.964996,-3.507507c2.026245,0 2.924988,1.410034 2.924988,3.493774l0,0.397522c0,0.159973 -0.132477,0.277466 -0.279999,0.277466"/>
				<path letter="n" d="m217.503448,60.28125l-0.14624,0c-0.147522,0 -0.25,-0.132507 -0.25,-0.280029l0,-5.066223c0,-1.849976 -0.85376,-2.086243 -1.837524,-2.086243l-0.631226,0c-0.982513,0 -1.833771,0.236267 -1.833771,2.086243l0,5.066223c0,0.147522 -0.10498,0.280029 -0.251251,0.280029l-0.14624,0c-0.148743,0 -0.251251,-0.132507 -0.251251,-0.280029l0,-5.066223c0,-2.46875 1.46875,-2.701233 2.482513,-2.701233l0.631226,0c1.013763,0 2.483765,0.232483 2.483765,2.701233l0,5.066223c0,0.147522 -0.10376,0.280029 -0.25,0.280029"/>
				<path letter="t" d="m222.860931,60.236206c-0.195007,0.030029 -0.67749,0.044983 -1.116241,0.044983c-1.295013,0 -2.013763,-0.426208 -2.013763,-1.878723l0,-7.742493c0,-0.14624 0.116241,-0.280029 0.277496,-0.280029l0.118744,0c0.146271,0 0.265015,0.133789 0.265015,0.280029l0,1.644958l2.46875,0c0.160004,0 0.277496,0.087524 0.277496,0.236267l0,0.132507c0,0.143738 -0.117493,0.234985 -0.277496,0.234985l-2.46875,0l0,5.493774c0,1.130005 0.369995,1.304993 1.352509,1.304993l1.116241,0c0.220001,0 0.307495,0.059998 0.307495,0.191223l0,0.10376c0,0.116272 -0.043732,0.205017 -0.307495,0.233765"/>
			</g>
		</g>
	</g>
</svg>